<?xml version="1.0" encoding="UTF-8" standalone="no"?>
<svg width="32px" height="32px" viewBox="0 0 32 32" version="1.1" xmlns="http://www.w3.org/2000/svg" xmlns:xlink="http://www.w3.org/1999/xlink">
    <!-- Generator: Sketch 39 (31667) - http://www.bohemiancoding.com/sketch -->
    <title>Artboard</title>
    <desc>Created with Sketch.</desc>
    <defs></defs>
    <g id="Page-1" stroke="none" stroke-width="1" fill="none" fill-rule="evenodd">
        <g id="Artboard" fill="#3b5998">
            <g id="facebook">
                <g id="Page-1">
                    <g id="Artboard-2">
                        <g id="facebook_negativo">
                            <g id="Page-1">
                                <path d="M0,3.18527222 C0,1.42609495 1.43713981,0 3.18527222,0 L28.8147278,0 C30.5739051,0 32,1.43713981 32,3.18527222 L32,28.8147278 C32,30.5739051 30.5628602,32 28.8147278,32 L3.18527222,32 C1.42609495,32 0,30.5628602 0,28.8147278 L0,3.18527222 L0,3.18527222 L0,3.18527222 Z M17.8909091,24 L14.9818182,24 L14.9818182,16.7272728 L12.8,16.7272728 L12.8,13.8181818 L14.9818182,13.8181818 L14.9818182,11.76 C14.9818182,9.31709091 16.4654546,8 18.6327272,8 C19.6727272,8 20.5381818,8.07927272 20.8,8.10909091 L20.8,10.6618182 L19.3018182,10.6618182 C18.1163637,10.6618182 17.8909091,11.2218182 17.8909091,12.0509091 L17.8909091,13.8181818 L20.8,13.8181818 L20.2981818,16.7272728 L17.8909091,16.7272728 L17.8909091,24 L17.8909091,24 L17.8909091,24 Z" id="Combined-Shape"></path>
                            </g>
                        </g>
                    </g>
                </g>
            </g>
        </g>
    </g>
</svg>