<?xml version="1.0" encoding="UTF-8" standalone="no"?>
<svg width="32px" height="32px" viewBox="0 0 32 32" version="1.1" xmlns="http://www.w3.org/2000/svg" xmlns:xlink="http://www.w3.org/1999/xlink">
    <!-- Generator: Sketch 39 (31667) - http://www.bohemiancoding.com/sketch -->
    <title>Combined Shape</title>
    <desc>Created with Sketch.</desc>
    <defs></defs>
    <g id="Page-1" stroke="none" stroke-width="1" fill="none" fill-rule="evenodd">
        <g id="Artboard" fill="#007bb6">
            <path d="M0,2.00174332 C0,0.89621101 0.889261723,0 2.00174332,0 L29.9982567,0 C31.103789,0 32,0.889261723 32,2.00174332 L32,29.9982567 C32,31.103789 31.1107383,32 29.9982567,32 L2.00174332,32 C0.89621101,32 0,31.1107383 0,29.9982567 L0,2.00174332 Z M6.4,9.9486352 C6.4,11.0194992 7.293792,11.8964272 8.389952,11.8964272 C9.48611198,11.8964272 10.371472,11.0194992 10.371472,9.9486352 C10.371472,8.868496 9.48611198,8 8.389952,8 C7.293792,8 6.4,8.868496 6.4,9.9486352 Z M10.295584,13.210976 L6.4,13.2539792 L6.4,24.864 L10.337744,24.864 L10.295584,13.210976 Z M23.710896,14.4260272 C22.88456,13.573552 21.560736,13.135088 20.203184,13.135088 C19.705696,13.135088 19.250368,13.1949552 18.8372,13.31216 C18.424032,13.430208 18.07832,13.590416 17.800064,13.801216 C17.521808,14.012016 17.294144,14.205952 17.125504,14.3922992 C16.965296,14.560096 16.81352,14.762464 16.661744,14.981696 L16.661744,15.0246992 L16.661744,14.981696 L16.661744,13.3973232 L13.044416,13.210976 C13.044416,13.210976 13.10344,21.853776 13.086576,24.864 L16.89784,24.864 L16.89784,18.346064 C16.89784,17.9590352 16.94,17.6554832 17.032752,17.426976 C17.19296,17.0483792 17.454352,16.72712 17.791632,16.465728 C18.12048,16.2051792 18.424032,16.05256 18.92152,16.05256 C19.604512,16.05256 20.194752,16.297088 20.506736,16.7448272 C20.835584,17.2001552 20.995792,17.8156912 20.995792,18.6082992 L20.995792,24.864 L24.9504,24.864 L24.9504,18.1866992 C24.9504,16.5340272 24.537232,15.2860912 23.710896,14.4260272 Z" id="Combined-Shape"></path>
        </g>
    </g>
</svg>